<svg width="32" height="32" viewBox="0 0 22 24" fill="none" xmlns="http://www.w3.org/2000/svg">
    <rect width="100%" height="100%" fill="rgba(106, 11, 255, 1)"/>

    <path fill-rule="evenodd" clip-rule="evenodd" d="M20.8566 6.829C20.1873 7.28691 19.7631 7.83294 19.5909 8.4579C19.4905 8.82213 19.4558 9.17708 19.5169 9.21488C19.6108 9.27287 20.2449 8.91521 20.5437 8.63574C20.8673 8.33295 21.1206 7.90429 21.2347 7.46586C21.3085 7.18272 21.3312 6.57282 21.2679 6.57282C21.2476 6.57282 21.0625 6.68812 20.8566 6.829ZM19.7985 8.61393C19.7631 8.58716 19.9340 8.26113 20.0376 8.15749C20.2177 7.97735 20.2096 8.01886 20.0035 8.33341C19.8985 8.49358 19.8063 8.61981 19.7985 8.61393Z" fill="white"/>
    <path d="M5.5345 11.4769C5.52504 11.4863 5.33908 11.4723 5.12121 11.4456L4.74088 11.3991C4.73072 11.3978 4.72135 11.393 4.71445 11.3854L4.50006 11.1509C4.0337 10.6406 3.52573 10.4777 2.39767 10.4766C1.56586 10.4759 1.5391 10.4864 1.67937 10.7588C2.02383 11.4278 2.80297 11.8535 3.68281 11.8535C3.91909 11.8535 4.22494 11.8243 4.3625 11.7886C4.50681 11.7512 4.64254 11.7398 4.68345 11.7617C4.72243 11.7826 5.04132 11.8479 5.39211 11.9069L6.02988 12.0143L5.5345 11.4769Z" fill="white"/>
    <path fill-rule="evenodd" clip-rule="evenodd" d="M4.98218 4.25486C4.98236 4.02701 5.00977 3.76316 5.04311 3.66843C5.07649 3.57374 5.12144 3.49623 5.14298 3.49623C5.21167 3.49623 5.37655 3.76481 5.4749 4.03675C5.57628 4.31713 5.61554 5.08605 5.54198 5.35031L5.52421 5.41412C5.51557 5.44516 5.47705 5.45593 5.45357 5.43386L5.39078 5.37488C5.11083 5.11185 4.98191 4.61648 4.98218 4.25486ZM17.8039 6.57667C17.8214 6.47507 17.898 6.38365 18.0475 6.19357C18.2016 5.99759 18.3438 5.84716 18.3634 5.85928C18.4210 5.89487 18.6780 6.61112 18.7760 7.00905C18.9260 7.61859 18.9776 8.15497 18.9483 8.7999C18.8949 9.97126 18.5050 11.0511 17.6948 12.271C17.2895 12.8813 16.7325 13.5385 15.6182 14.7214C14.4681 15.9423 14.3320 16.0927 13.9647 16.548C12.8675 17.9082 12.3069 19.2332 12.3058 20.4689C12.3050 21.3389 12.5706 22.2198 13.0693 23.0013C13.1543 23.1344 13.2237 23.2532 13.2237 23.2653C13.2237 23.2775 12.1493 23.2874 10.8361 23.2874C9.52292 23.2874 8.44849 23.2777 8.44849 23.2659C8.44849 23.2540 8.60117 22.9286 8.78781 22.5427C9.13834 21.8177 9.28017 21.4594 9.81986 19.9353C10.9872 16.6387 11.8928 15.2331 13.9664 13.4993C14.9423 12.6835 15.9485 11.8921 16.7989 10.9409C16.9411 10.7818 17.0780 10.6178 17.2016 10.4437C17.5074 10.0127 17.7755 9.48846 17.9347 9.00654C18.0489 8.66077 18.0638 8.54808 18.0650 8.01928C18.0658 7.66457 18.0435 7.36094 17.9182 7.02908L17.9178 7.02795C17.8289 6.79233 17.7862 6.67930 17.8039 6.57667Z" fill="white"/>
    <path d="M20.0193 3.14596C19.3125 3.43989 18.8446 3.93724 18.7278 4.5189C18.6601 4.85636 18.7042 5.1034 18.8323 5.1034C19.1312 5.1034 19.8841 4.53212 20.1420 4.10971C20.2776 3.88765 20.4325 3.39874 20.4325 3.19293C20.4325 3.00343 20.3771 2.99714 20.0193 3.14596Z" fill="white"/>
    <path d="M14.3045 0.654977C13.7286 1.33656 13.7322 2.72529 14.3114 3.4021L14.4632 3.57945C14.4707 3.58817 14.4743 3.59951 14.4734 3.61094L14.4431 3.96938C14.4039 4.43271 14.2795 5.02098 14.1196 5.49941C13.8358 6.34823 13.1067 7.61588 12.3137 8.63919C11.8849 9.19247 10.8615 10.4377 10.6582 10.6578C10.6406 10.6769 10.6089 10.7096 10.5932 10.7303L10.1546 11.3059L9.88185 11.7290C9.73184 11.9616 9.58041 12.2074 9.54533 12.2752L9.51166 12.3403C9.49747 12.3677 9.45981 12.3716 9.44033 12.3476L9.18315 12.0313C8.85457 11.6271 8.40391 11.2127 7.80338 10.7628L7.42371 10.4782C7.41539 10.4720 7.40962 10.4630 7.40747 10.4528L7.19146 9.42762C6.79562 7.54893 6.74254 7.33301 6.61935 7.10089C6.45915 6.79893 5.40033 5.74154 4.77092 5.25494L4.29777 4.88916C4.28921 4.88254 4.28346 4.87292 4.28170 4.86224L4.23035 4.55136C4.16029 4.12684 4.00647 3.83029 3.70131 3.53108C3.46186 3.29634 2.73084 2.81626 2.68410 2.86300C2.67129 2.87582 2.63846 3.01316 2.61114 3.16828C2.47380 3.94798 2.92534 4.79180 3.68258 5.17068C3.86101 5.25994 4.04844 5.33300 4.09908 5.33300C4.14973 5.33300 4.33807 5.45129 4.51760 5.59584C5.02079 6.00099 6.10597 7.08041 6.20496 7.27424C6.25368 7.36957 6.34349 7.68985 6.40456 7.98599C6.46562 8.28212 6.58836 8.84353 6.67725 9.23357C6.76614 9.62365 6.83043 9.95124 6.82009 9.96162C6.78639 9.99528 5.75912 9.20712 5.42136 8.88848C4.97244 8.46497 4.59630 7.89190 4.43528 7.38610C4.31153 6.99755 4.16844 6.92832 3.86330 6.66466C3.65875 6.48787 3.47155 6.34322 3.44740 6.34322C3.37628 6.34322 3.32866 6.74089 3.33197 7.30753C3.33693 8.15740 3.56155 8.82029 4.16768 9.77358C4.22645 9.86601 4.19757 9.86009 3.83231 9.70470C3.28913 9.47354 2.49772 8.83591 2.45296 8.59327C2.41558 8.39086 2.25125 8.10230 2.08177 7.94154C1.91391 7.78224 1.50631 7.59641 1.19565 7.53749C0.824968 7.46719 0 7.47656 0 7.55108C0 7.70266 0.260297 8.10671 0.502365 8.33079C0.883052 8.68332 1.43620 8.91470 1.89811 8.91470C2.05574 8.91470 2.11566 8.95024 2.38275 9.20220C2.90197 9.69207 3.24317 9.92539 3.78015 10.1580C4.69181 10.5529 4.87680 10.6711 5.23100 11.0850C5.40736 11.2911 5.54391 11.4674 5.53450 11.4769L6.02988 12.0143L6.33270 12.3586C7.91840 14.1622 8.92942 15.7160 9.34606 16.9899C9.38853 17.1198 9.43784 17.2261 9.45561 17.2261C9.47343 17.2261 9.55828 17.0660 9.64419 16.8702C9.98952 16.0835 10.6255 15.0366 11.0344 14.5818C11.2097 14.3867 11.2558 14.2908 11.3570 13.9106C11.6526 12.7999 12.1126 11.8035 12.9575 10.4437C13.2714 9.93838 13.3023 9.90596 14.6843 8.62987C16.5418 6.91464 16.7131 6.75002 16.8745 6.52534C16.9500 6.42023 17.1223 6.21750 17.2575 6.07474C17.8477 5.45111 18.1367 4.74652 18.1367 3.93113C18.1367 3.48585 18.0535 3.11450 17.9154 2.94396L17.8645 2.88117C17.8478 2.86055 17.8166 2.85989 17.7991 2.87979L17.6149 3.08861C16.8859 3.91534 16.5837 4.77384 16.7093 5.66123L16.7653 6.05692C16.7672 6.06996 16.7629 6.08313 16.7538 6.09263L16.5916 6.26154C16.4944 6.36274 16.0223 6.80237 15.5425 7.23856C15.0627 7.67470 14.5211 8.17655 14.3390 8.35380L14.1902 8.49858C14.1555 8.53228 14.1003 8.49182 14.1220 8.44862L14.1842 8.32469C14.9644 6.77027 15.2476 5.33420 15.0391 3.99014C14.9589 3.47336 14.9589 3.47323 15.0601 3.22072C15.2114 2.84289 15.2312 2.36143 15.1143 1.89925C15.0162 1.51119 14.7184 0.854955 14.5374 0.627976L14.4680 0.540835C14.4511 0.519700 14.4191 0.519244 14.4017 0.539891L14.3045 0.654977Z" fill="white"/>
</svg>